<?xml version="1.0" encoding="utf-8"?>
<!-- Generator: Adobe Illustrator 15.0.0, SVG Export Plug-In . SVG Version: 6.00 Build 0)  -->
<!DOCTYPE svg PUBLIC "-//W3C//DTD SVG 1.1//EN" "http://www.w3.org/Graphics/SVG/1.1/DTD/svg11.dtd">
<svg version="1.1" id="Layer_1" xmlns="http://www.w3.org/2000/svg" xmlns:xlink="http://www.w3.org/1999/xlink" x="0px" y="0px"
	 width="612px" height="792px" viewBox="0 0 612 792" enable-background="new 0 0 612 792" xml:space="preserve">
<g>
	<g>
		<path d="M551.242,531.727H248.463c-3.221,0-38.653,0-48.316-25.769c-12.884-25.769,12.884-54.758,22.547-64.421l0,0l16.105-19.326
			L119.621,174.189l-80.526-6.442c-12.884-3.221-19.326-12.884-19.326-22.547s9.663-19.327,22.547-16.105l93.411,9.663
			c6.442,0,12.884,6.442,16.105,12.884l128.842,270.569c3.221,6.441,0,16.104-3.221,19.326l-25.769,25.769
			c-12.884,12.884-12.884,22.547-16.105,22.547c3.221,0,9.663,3.221,12.884,3.221h299.558c9.663,0,19.326,9.663,19.326,19.327
			C570.568,525.284,560.905,531.727,551.242,531.727z"/>
	</g>
	<g>
		<path d="M261.347,444.758c-9.663,0-19.326-6.442-19.326-16.105s6.442-19.326,16.105-22.547l264.126-25.769l19.326-151.39
			l-238.358-16.105c-9.663,0-19.326-9.664-19.326-19.327s9.664-19.326,19.326-19.326l260.905,12.884
			c6.442,0,9.663,3.221,12.885,6.442c3.221,3.221,6.442,9.663,3.221,16.105l-25.769,190.042c0,9.663-9.663,16.105-16.105,16.105
			L261.347,444.758C264.568,444.758,261.347,444.758,261.347,444.758z"/>
	</g>
	<g>
		<path d="M509.368,660.568c-32.21,0-57.979-25.769-57.979-57.979c0-32.211,25.769-57.979,57.979-57.979
			c32.211,0,57.979,25.769,57.979,57.979C567.348,634.8,541.579,660.568,509.368,660.568z M509.368,583.263
			c-9.663,0-19.326,9.664-19.326,19.327s9.663,19.326,19.326,19.326s19.326-9.663,19.326-19.326S519.031,583.263,509.368,583.263z"
			/>
	</g>
	<g>
		<path d="M258.126,660.568c-32.21,0-57.979-25.769-57.979-57.979c0-32.211,25.769-57.979,57.979-57.979
			s57.979,25.769,57.979,57.979C316.105,634.8,290.337,660.568,258.126,660.568z M258.126,583.263
			c-9.664,0-19.327,9.664-19.327,19.327s9.664,19.326,19.327,19.326s19.326-9.663,19.326-19.326S267.79,583.263,258.126,583.263z"/>
	</g>
</g>
</svg>
