<?xml version="1.0" encoding="utf-8"?>
<!-- Generator: Adobe Illustrator 15.0.0, SVG Export Plug-In . SVG Version: 6.00 Build 0)  -->
<!DOCTYPE svg PUBLIC "-//W3C//DTD SVG 1.1//EN" "http://www.w3.org/Graphics/SVG/1.1/DTD/svg11.dtd">
<svg version="1.1" id="Layer_1" xmlns="http://www.w3.org/2000/svg" xmlns:xlink="http://www.w3.org/1999/xlink" x="0px" y="0px"
	 width="612px" height="792px" viewBox="0 0 612 792" enable-background="new 0 0 612 792" xml:space="preserve">
<path id="XMLID_10641_" d="M507.984,549.273L343.711,385l164.273-164.273c9.663-9.664,9.663-22.548,0-32.211s-22.548-9.663-32.211,0
	L311.5,352.789L147.227,188.516c-9.664-9.663-22.548-9.663-32.211,0s-9.663,22.547,0,32.211L279.29,385L115.016,549.273
	c-9.663,9.663-9.663,22.548,0,32.211s22.547,9.663,32.211,0L311.5,417.211l164.273,164.273c9.663,9.663,22.548,9.663,32.211,0
	S517.647,558.937,507.984,549.273z"/>
</svg>
