<?xml version="1.0" encoding="utf-8"?>
<!-- Generator: Adobe Illustrator 22.0.1, SVG Export Plug-In . SVG Version: 6.00 Build 0)  -->
<svg version="1.1" id="Layer_1" xmlns="http://www.w3.org/2000/svg" xmlns:xlink="http://www.w3.org/1999/xlink" x="0px" y="0px"
	 viewBox="0 0 612 792" style="enable-background:new 0 0 612 792;" xml:space="preserve">
<path id="Google_x2B__2_" d="M326.8,530.2c0-4-0.4-7.9-1.4-11.6c-0.9-3.8-1.6-7.1-2.6-10.2c-1-3.2-2.7-6.5-5.1-9.9
	c-2.3-3.5-4.3-6.4-6-8.7c-1.7-2.4-4.3-5.2-7.6-8.5c-3.5-3.3-6-5.6-7.8-7.3c-2-1.7-5.1-4.1-9.3-7.5c-4.4-3.2-7.2-5.4-8.8-6.4
	c-1.7-1.2-5-3.5-9.7-6.8c-4.5-3.1-7.3-5.2-8.6-5.8c-3-0.5-7.9-0.7-14.2-0.7c-10.4,0-20.6,0.7-30.4,2c-9.8,1.4-20.4,3.7-30.8,7.2
	c-10.8,3.3-20,7.8-28.4,13.1c-7.8,5.4-14.4,12.6-19.5,21.4c-5.3,9.2-7.6,19.4-7.6,30.9c0,13,3,24.5,10,34.7
	c6.9,10.3,15.6,18.2,26.6,24.1c11,5.7,22.4,10.2,34.6,13c11.9,2.8,24.2,4.4,36.4,4.4c11,0,21.9-1.2,32-3.5
	c10.3-2.5,20-6.1,28.9-11.2c9.2-5.1,16.2-12.1,21.5-21.1C324.1,552.7,326.8,542.3,326.8,530.2 M292.6,283.1
	c0-11.5-1.6-23.6-4.9-36.5c-3.2-13-7.7-25.4-13.5-37.4c-5.7-12.1-13.9-22-24.2-29.9c-10.1-7.8-21.4-11.7-34.2-11.7
	c-17.8,0-31.4,6.7-41.3,19.8c-9.8,13.3-14.6,29-14.6,47.3c0,9.1,1.2,18.4,3.2,28.4c2.2,9.9,5.7,19.9,10.2,29.8
	c4.6,9.9,9.9,19,16,26.8c6.3,8,13.6,14.4,22.4,19.5c8.7,4.8,18.1,7.4,28,7.4c18.5,0,31.8-5.7,40.1-17.3
	C288.3,317.5,292.6,302.3,292.6,283.1 M254.7,147h125.4l-38.7,22.7h-38.8c13.7,8.6,24.2,20.4,31.6,36c7.3,15.5,11.1,31.6,11.1,48.5
	c0,14.1-2.2,26.8-6.5,37.7c-4.3,10.9-9.7,19.9-16,26.4c-6.2,6.9-12.7,13-18.9,18.6c-6.5,5.6-11.7,11.5-16,17.6
	c-4.7,6-6.7,12.4-6.7,19.3c0,5,1.5,9.8,4.6,14.5c3.3,4.9,7.4,9.5,12.5,13.8c5.2,4.4,10.6,9,16.9,13.8c5.9,4.7,12.1,10.1,18.2,15.9
	c6.1,5.8,11.8,12.1,16.6,18.8c5.3,6.8,9.5,15,12.4,24.3c3.1,9.5,4.7,19.7,4.7,30.7c0,30.4-13.2,57.4-40.1,80.8
	c-28.8,24.9-69.1,37.6-120.3,37.6c-11.1,0-22.7-1-34.3-3c-11.6-1.9-23.3-5.1-34.8-9.6c-11.7-4.4-22.1-10-31.2-16.6
	c-8.8-6.5-16.2-15-21.8-25.4c-5.9-10.6-8.6-22.1-8.6-34.9c0-11.6,3.4-24.5,10.5-38.7c6-12.4,15.4-22.8,27.6-31.7
	c12.3-8.9,26-15.6,41.4-20.4c15.4-4.7,30.4-8.1,44.6-10.3c14.2-2.1,28.4-3.5,43-3.8c-12.4-16-18.5-30.1-18.5-42.8
	c0-2.2,0.2-4.6,0.7-6.7c0.3-2.3,0.7-4,1.5-5.5c0.6-1.5,1.2-3.7,2.2-6.3c1.1-2.5,1.7-4.7,1.9-6.2c-7.7,1-14.2,1.5-20,1.5
	c-28.3,0-53-9.4-73.2-28.2c-20.3-18.7-30.4-42.2-30.4-70.3c0-26.9,9-50.9,27.2-72c17.9-21,40.3-34.5,66.9-40.4
	C219.1,148.8,237.1,147,254.7,147 M552.7,220.3v36.6h-73.6v73.5h-36.8v-73.5h-73v-36.6h73V147h36.8v73.3H552.7z"/>
</svg>
