<?xml version="1.0" encoding="utf-8"?>
<!-- Generator: Adobe Illustrator 22.1.0, SVG Export Plug-In . SVG Version: 6.00 Build 0)  -->
<svg version="1.1" id="Email" xmlns="http://www.w3.org/2000/svg" xmlns:xlink="http://www.w3.org/1999/xlink" x="0px" y="0px"
	 viewBox="0 0 303.5 346" style="enable-background:new 0 0 303.5 346;" xml:space="preserve">
<path d="M257.3,345.4c-0.1,0-0.2,0-0.2,0c-31-3.6-111-21.6-184.1-111.5C-0.1,144-1.4,62,1.4,30.9c0.8-8.5,6.9-15.4,15.3-17.3
	l57-12.7c9.5-2.1,19.2,3.1,22.6,12.2l24.2,64.1c3,7.9,0.6,16.8-6,22.1L81.6,126c2.9,9.3,12.6,35.1,39.7,68.5
	c27.1,33.3,50.4,48.2,58.9,52.9l32.8-26.7c6.6-5.3,15.8-5.9,22.9-1.3l57.8,36.7c8.2,5.2,11.3,15.8,7.4,24.6l-24,53.2
	C273.6,341.7,265.7,346.2,257.3,345.4z M78.6,13.5c-0.7-0.1-1.4,0-2.1,0.1l-57,12.7c-2.8,0.6-4.9,3-5.2,5.8
	C11.6,61.6,13,139.5,83,225.7c70.1,86.2,146.1,103.4,175.5,106.8c2.9,0.2,5.5-1.2,6.7-3.9l24-53.2c1.3-3,0.3-6.6-2.5-8.3l-57.8-36.7
	c-2.4-1.5-5.5-1.4-7.7,0.5l-36.1,29.3c-1.9,1.5-4.5,1.9-6.7,0.9c-1.3-0.5-31-13.8-67.2-58.4c-36.2-44.5-43.1-76.4-43.4-77.7
	c-0.5-2.4,0.4-4.8,2.3-6.4l36.1-29.3c2.2-1.8,3-4.8,2-7.5L84.1,17.7C83.2,15.3,81,13.7,78.6,13.5z"/>
</svg>
