<?xml version="1.0" encoding="utf-8"?>
<!-- Generator: Adobe Illustrator 15.0.0, SVG Export Plug-In . SVG Version: 6.00 Build 0)  -->
<!DOCTYPE svg PUBLIC "-//W3C//DTD SVG 1.1//EN" "http://www.w3.org/Graphics/SVG/1.1/DTD/svg11.dtd">
<svg version="1.1" id="Layer_1" xmlns="http://www.w3.org/2000/svg" xmlns:xlink="http://www.w3.org/1999/xlink" x="0px" y="0px"
	 width="612px" height="792px" viewBox="0 0 612 792" enable-background="new 0 0 612 792" xml:space="preserve">
<g>
	<path d="M305.965,342.958c70.864,0,125.622-57.979,125.622-125.621c0-70.863-57.979-125.621-125.622-125.621
		s-125.621,54.758-125.621,122.4C180.344,284.979,238.323,342.958,305.965,342.958z M305.965,117.484
		c54.758,0,96.631,45.095,96.631,96.632c0,54.758-45.095,96.631-96.631,96.631s-96.631-45.095-96.631-96.631
		C209.334,162.579,254.429,117.484,305.965,117.484z"/>
	<path d="M305.965,355.842c-132.063,0-241.579,109.516-241.579,241.579v9.663l9.663,3.221c0,0,25.768,12.885,86.968,19.327
		c6.442,6.441,19.326,16.104,41.874,25.768c28.99,9.663,61.2,16.105,103.074,16.105c38.653,0,74.084-6.442,103.074-16.105
		c22.548-9.663,38.652-19.326,45.095-25.768c61.2-6.442,83.747-19.327,83.747-19.327l9.663-3.221v-9.663
		C550.766,465.357,441.25,355.842,305.965,355.842z M463.797,597.421v-57.979c0-9.664-6.442-16.105-16.105-16.105
		s-16.104,6.441-16.104,16.105v70.862c-35.432,28.99-103.074,32.211-125.622,32.211c-19.326,0-90.189-3.221-122.4-32.211v-67.642
		c0-9.663-6.442-16.105-16.105-16.105c-9.663,0-16.105,6.442-16.105,16.105v54.758c-28.99-3.221-45.095-9.663-54.758-9.663
		c3.221-51.537,25.768-103.074,64.421-138.505c38.653-38.653,90.189-57.979,144.947-57.979c54.758,0,106.294,19.326,144.948,57.979
		c38.652,35.431,61.199,86.968,64.421,138.505C505.671,590.979,489.565,594.2,463.797,597.421z"/>
</g>
</svg>
