<?xml version="1.0" encoding="utf-8"?>
<!-- Generator: Adobe Illustrator 22.0.1, SVG Export Plug-In . SVG Version: 6.00 Build 0)  -->
<svg version="1.1" id="Layer_1" xmlns="http://www.w3.org/2000/svg" xmlns:xlink="http://www.w3.org/1999/xlink" x="0px" y="0px"
	 viewBox="0 0 612 792" style="enable-background:new 0 0 612 792;" xml:space="preserve">
<path id="RSS_1_" d="M191.4,495.6c10.1,10.1,16.2,23.7,16.2,38.9c0,15.2-6.2,28.8-16.2,38.9l0,0c-10.1,10-23.8,16.1-39.1,16.1
	c-15.3,0-29-6.1-39-16.2c-10-10-16.2-23.7-16.2-38.9c0-15.2,6.2-28.9,16.2-38.9v0c10.1-10,23.8-16.2,39-16.2
	C167.6,479.4,181.3,485.6,191.4,495.6z M191.4,495.6L191.4,495.6C191.4,495.6,191.4,495.6,191.4,495.6L191.4,495.6z M113.3,573.4
	C113.3,573.4,113.3,573.4,113.3,573.4C113.3,573.4,113.3,573.4,113.3,573.4L113.3,573.4z M97.1,315.5v79.4
	c51.9,0,100.9,20.4,137.6,57.2c36.7,36.6,57,85.8,57.1,137.8h0v0.2h79.8c-0.1-75.7-30.8-144.2-80.6-194
	C241.3,346.3,172.8,315.5,97.1,315.5z M97.3,174v79.4c185.4,0.1,336.1,151.1,336.2,336.7h79.6c-0.1-114.7-46.7-218.6-122-294
	C315.8,220.7,211.9,174,97.3,174z"/>
</svg>
