<?xml version="1.0" encoding="utf-8"?>
<!-- Generator: Adobe Illustrator 15.0.0, SVG Export Plug-In . SVG Version: 6.00 Build 0)  -->
<!DOCTYPE svg PUBLIC "-//W3C//DTD SVG 1.1//EN" "http://www.w3.org/Graphics/SVG/1.1/DTD/svg11.dtd">
<svg version="1.1" id="Layer_1" xmlns="http://www.w3.org/2000/svg" xmlns:xlink="http://www.w3.org/1999/xlink" x="0px" y="0px"
	 width="612px" height="792px" viewBox="0 0 612 792" enable-background="new 0 0 612 792" xml:space="preserve">
<path d="M566.904,608.491l-154.609-154.61c35.432-38.653,57.979-90.19,57.979-144.948c3.221-119.179-93.41-215.811-212.59-215.811
	c-119.179,0-212.589,96.632-212.589,215.811c0,119.179,96.632,212.589,212.589,212.589c45.095,0,86.969-12.884,122.4-38.652
	l154.609,154.61L566.904,608.491z M90.189,308.933c0-93.411,74.084-167.495,167.495-167.495c93.41,0,167.494,74.084,167.494,167.495
	s-74.084,167.495-167.494,167.495C167.494,476.428,90.189,399.123,90.189,308.933z"/>
</svg>
